<svg width="15" height="16" viewBox="0 0 15 16" fill="none" xmlns="http://www.w3.org/2000/svg">
<g id="Frame">
<path id="Vector" d="M6.63647 7.69014C6.84394 7.89761 6.84394 8.23398 6.63647 8.44144L5.77258 9.30535H8.2724C9.21259 9.30535 9.97957 8.54334 9.97957 7.59825C9.97957 6.65915 9.21867 5.89825 8.27957 5.89825H6.89124C6.59784 5.89825 6.35999 5.6604 6.35999 5.367C6.35999 5.0736 6.59784 4.83575 6.89124 4.83575H8.27957C9.80547 4.83575 11.0421 6.07235 11.0421 7.59825C11.0421 9.13233 9.7973 10.3678 8.27249 10.3678H5.7725L6.63647 11.2318C6.84394 11.4393 6.84394 11.7756 6.63647 11.9831C6.42901 12.1906 6.09264 12.1906 5.88517 11.9831L4.11434 10.2123C4.04178 10.1397 3.9946 10.0514 3.97279 9.95832C3.9636 9.91923 3.95874 9.87848 3.95874 9.8366C3.95874 9.75998 3.97496 9.68714 4.00415 9.62135C4.02527 9.57368 4.05374 9.52848 4.08957 9.48746C4.09836 9.47739 4.10753 9.46765 4.11705 9.45827L5.88517 7.69014C6.09264 7.48268 6.42901 7.48268 6.63647 7.69014Z" fill="#282C3F"/>
<path id="Vector_2" fill-rule="evenodd" clip-rule="evenodd" d="M0.416992 8.20034C0.416992 4.28832 3.58831 1.117 7.50033 1.117C11.4123 1.117 14.5837 4.28832 14.5837 8.20034C14.5837 12.1123 11.4123 15.2837 7.50033 15.2837C3.58831 15.2837 0.416992 12.1123 0.416992 8.20034ZM7.50033 2.1795C4.17511 2.1795 1.47949 4.87512 1.47949 8.20034C1.47949 11.5255 4.17511 14.2212 7.50033 14.2212C10.8255 14.2212 13.5212 11.5255 13.5212 8.20034C13.5212 4.87512 10.8255 2.1795 7.50033 2.1795Z" fill="#282C3F"/>
</g>
</svg>
