<svg width="8" height="10" viewBox="0 0 8 10" fill="none" xmlns="http://www.w3.org/2000/svg">
<rect width="8" height="10" fill="#F5F5F5"/>
<rect id="Rectangle 2" x="-303" y="-245" width="1411" height="1131" fill="white"/>
<g id="div.desktop-base-cartLayout">
</g>
<g id="div.itemBlock-base-leftBlock">
<g id="div#cartItemsList">
<g id="div.itemContainer-base-item">
<rect x="-184.5" y="-109.5" width="592.39" height="184.14" rx="3.5" fill="white"/>
<g id="div.itemContainer-base-details">
<g id="div.itemContainer-base-price">
<g id="div.itemContainer-base-discountBlock">
<g id="SVG" clip-path="url(#clip0_0_1)">
<g id="Frame">
<g id="Clip path group">
<mask id="mask0_0_1" style="mask-type:luminance" maskUnits="userSpaceOnUse" x="0" y="0" width="8" height="10">
<g id="clip0_674_1209">
<path id="Vector" d="M7.75 0.140015H0.75V9.14001H7.75V0.140015Z" fill="white"/>
</g>
</mask>
<g mask="url(#mask0_0_1)">
<g id="Group">
<path id="Vector_2" fill-rule="evenodd" clip-rule="evenodd" d="M1.7168 4.83931L4.02973 8.87778H5.27798L2.94057 5.02288C3.4147 4.95769 3.81996 4.83006 4.15632 4.64001H7.75V3.64001H5.04767C5.12186 3.44768 5.17008 3.23556 5.19231 3.00365H6.78325V2.22043H5.16785C5.13521 1.93488 5.05771 1.68605 4.93531 1.47393C4.81295 1.2618 4.65795 1.07824 4.47028 0.923232H6.78325V0.140015H1.7168V0.923232H1.98603C2.40211 0.923232 2.75293 0.968105 3.03848 1.05785C3.33218 1.14759 3.5647 1.29036 3.73603 1.48616C3.90736 1.67381 4.02158 1.91856 4.07868 2.22043H1.7168V3.00365H4.09091C4.0655 3.25785 3.99801 3.46997 3.88843 3.64001H0.75V4.64001H1.7168V4.83931Z" fill="#94969F"/>
</g>
</g>
</g>
</g>
</g>
<g id="6,899">
<path d="M11.474 9.30801C11.0353 9.30801 10.6293 9.21935 10.256 9.04201C9.88267 8.86468 9.56067 8.59868 9.29 8.24401C9.02867 7.88001 8.81867 7.43201 8.66 6.90001C8.51067 6.35868 8.436 5.73801 8.436 5.03801C8.436 4.12335 8.52933 3.34868 8.716 2.71401C8.90267 2.07935 9.15 1.56601 9.458 1.17401C9.77533 0.782015 10.1347 0.497348 10.536 0.320014C10.9467 0.133347 11.3713 0.0400141 11.81 0.0400141C12.2767 0.0400141 12.678 0.128681 13.014 0.306014C13.3593 0.474014 13.6533 0.693347 13.896 0.964014L13.322 1.60801C13.1353 1.38401 12.9113 1.21135 12.65 1.09001C12.398 0.959347 12.1273 0.894014 11.838 0.894014C11.3993 0.894014 10.9933 1.02468 10.62 1.28601C10.256 1.54735 9.962 1.98135 9.738 2.58801C9.514 3.18535 9.402 4.00201 9.402 5.03801C9.402 5.76601 9.48133 6.39135 9.64 6.91401C9.79867 7.42735 10.032 7.81935 10.34 8.09001C10.648 8.36068 11.0307 8.49601 11.488 8.49601C11.7867 8.49601 12.0573 8.41201 12.3 8.24401C12.552 8.06668 12.748 7.82401 12.888 7.51601C13.028 7.20801 13.098 6.85801 13.098 6.46601C13.098 6.06468 13.0327 5.71468 12.902 5.41601C12.7807 5.11735 12.594 4.88868 12.342 4.73001C12.09 4.56201 11.768 4.47801 11.376 4.47801C11.0773 4.47801 10.7507 4.57601 10.396 4.77201C10.0413 4.96801 9.70067 5.30401 9.374 5.78001L9.346 4.94001C9.63533 4.55735 9.976 4.25401 10.368 4.03001C10.76 3.80601 11.152 3.69401 11.544 3.69401C12.0573 3.69401 12.5007 3.80135 12.874 4.01601C13.2567 4.22135 13.5507 4.52935 13.756 4.94001C13.9613 5.34135 14.064 5.85001 14.064 6.46601C14.064 7.02601 13.9473 7.52068 13.714 7.95001C13.4807 8.37001 13.168 8.70135 12.776 8.94401C12.384 9.18668 11.95 9.30801 11.474 9.30801ZM15.5646 11.464L15.2986 10.848C15.6813 10.68 15.98 10.4467 16.1946 10.148C16.4093 9.84935 16.5166 9.50401 16.5166 9.11201L16.3766 8.13201L16.9226 8.93001C16.8573 9.02335 16.7733 9.08868 16.6706 9.12601C16.5773 9.15401 16.4793 9.16801 16.3766 9.16801C16.162 9.16801 15.9753 9.10268 15.8166 8.97201C15.6673 8.84135 15.5926 8.65468 15.5926 8.41201C15.5926 8.17868 15.672 7.99668 15.8306 7.86601C15.9986 7.73535 16.1853 7.67001 16.3906 7.67001C16.68 7.67001 16.904 7.78201 17.0626 8.00601C17.2213 8.23001 17.3006 8.53801 17.3006 8.93001C17.3006 9.50868 17.142 10.0173 16.8246 10.456C16.5166 10.8947 16.0966 11.2307 15.5646 11.464ZM21.5033 9.30801C20.9526 9.30801 20.4579 9.20535 20.0193 9.00001C19.5806 8.78535 19.2353 8.49135 18.9833 8.11801C18.7313 7.74468 18.6053 7.32468 18.6053 6.85801C18.6053 6.46601 18.6893 6.11601 18.8573 5.80801C19.0253 5.50001 19.2399 5.22935 19.5013 4.99601C19.7626 4.76268 20.0333 4.57135 20.3133 4.42201V4.36601C19.9866 4.13268 19.6926 3.84801 19.4313 3.51201C19.1793 3.17601 19.0533 2.77468 19.0533 2.30801C19.0533 1.85068 19.1606 1.45401 19.3753 1.11801C19.5993 0.772681 19.8979 0.506681 20.2713 0.320014C20.6446 0.133347 21.0646 0.0400141 21.5312 0.0400141C22.3153 0.0400141 22.9266 0.264014 23.3653 0.712014C23.8133 1.15068 24.0373 1.71535 24.0373 2.40601C24.0373 2.72335 23.9673 3.02201 23.8273 3.30201C23.6966 3.57268 23.5333 3.82001 23.3373 4.04401C23.1506 4.26801 22.9686 4.45001 22.7913 4.59001V4.64601C23.0526 4.80468 23.2999 4.98668 23.5333 5.19201C23.7759 5.38801 23.9719 5.63068 24.1213 5.92001C24.2706 6.20001 24.3453 6.53601 24.3453 6.92801C24.3453 7.37601 24.2286 7.77735 23.9953 8.13201C23.7619 8.48668 23.4306 8.77135 23.0013 8.98601C22.5719 9.20068 22.0726 9.30801 21.5033 9.30801ZM21.5312 8.53801C21.8953 8.53801 22.2126 8.46801 22.4833 8.32801C22.7633 8.18801 22.9779 7.99668 23.1273 7.75401C23.2859 7.50201 23.3653 7.22201 23.3653 6.91401C23.3653 6.50335 23.2486 6.17201 23.0153 5.92001C22.7819 5.66801 22.4739 5.45335 22.0913 5.27601C21.7179 5.09868 21.3073 4.92135 20.8593 4.74401C20.4859 4.98668 20.1686 5.27601 19.9073 5.61201C19.6553 5.94801 19.5293 6.33535 19.5293 6.77401C19.5293 7.11001 19.6133 7.41335 19.7812 7.68401C19.9586 7.94535 20.1966 8.15535 20.4953 8.31401C20.8033 8.46335 21.1486 8.53801 21.5312 8.53801ZM22.1333 4.32401C22.4599 4.03468 22.7073 3.73601 22.8753 3.42801C23.0526 3.12001 23.1413 2.79335 23.1413 2.44801C23.1413 2.14935 23.0759 1.87868 22.9453 1.63601C22.8239 1.38401 22.6419 1.18335 22.3993 1.03401C22.1566 0.884681 21.8626 0.810014 21.5173 0.810014C21.0786 0.810014 20.7146 0.950014 20.4253 1.23001C20.1453 1.50068 20.0053 1.86001 20.0053 2.30801C20.0053 2.68135 20.1033 2.98935 20.2993 3.23201C20.5046 3.47468 20.7706 3.68001 21.0973 3.84801C21.4239 4.01601 21.7693 4.17468 22.1333 4.32401ZM27.7499 9.30801C27.2832 9.30801 26.8772 9.21935 26.5319 9.04201C26.1865 8.86468 25.8972 8.64535 25.6639 8.38401L26.2379 7.74001C26.4245 7.96401 26.6485 8.14135 26.9099 8.27201C27.1712 8.39335 27.4372 8.45401 27.7079 8.45401C28.1559 8.45401 28.5619 8.32335 28.9259 8.06201C29.2992 7.80068 29.5932 7.36668 29.8079 6.76001C30.0319 6.15335 30.1439 5.33668 30.1439 4.31001C30.1439 3.58201 30.0645 2.96135 29.9059 2.44801C29.7565 1.92535 29.5279 1.52868 29.2199 1.25801C28.9119 0.987348 28.5292 0.852015 28.0719 0.852015C27.7732 0.852015 27.5025 0.940681 27.2599 1.11801C27.0172 1.28601 26.8212 1.52401 26.6719 1.83201C26.5319 2.13068 26.4619 2.48068 26.4619 2.88201C26.4619 3.28335 26.5225 3.63335 26.6439 3.93201C26.7745 4.23068 26.9659 4.46401 27.2179 4.63201C27.4699 4.79068 27.7919 4.87001 28.1839 4.87001C28.4825 4.87001 28.8092 4.77201 29.1639 4.57601C29.5185 4.37068 29.8592 4.03001 30.1859 3.55401L30.2139 4.40801C29.9339 4.78135 29.5932 5.08468 29.1919 5.31801C28.7999 5.54201 28.4079 5.65401 28.0159 5.65401C27.5025 5.65401 27.0545 5.55135 26.6719 5.34601C26.2892 5.13135 25.9952 4.81868 25.7899 4.40801C25.5845 3.99735 25.4819 3.48868 25.4819 2.88201C25.4819 2.32201 25.5985 1.82735 25.8319 1.39801C26.0745 0.968681 26.3919 0.637348 26.7839 0.404014C27.1759 0.161348 27.6052 0.0400141 28.0719 0.0400141C28.5199 0.0400141 28.9259 0.128681 29.2899 0.306014C29.6632 0.483347 29.9852 0.754014 30.2559 1.11801C30.5265 1.47268 30.7365 1.92068 30.8859 2.46201C31.0445 2.99401 31.1239 3.61001 31.1239 4.31001C31.1239 5.21535 31.0305 5.99001 30.8439 6.63401C30.6572 7.26868 30.4052 7.78201 30.0879 8.17401C29.7705 8.56601 29.4112 8.85535 29.0099 9.04201C28.6085 9.21935 28.1885 9.30801 27.7499 9.30801ZM34.6405 9.30801C34.1738 9.30801 33.7678 9.21935 33.4225 9.04201C33.0772 8.86468 32.7878 8.64535 32.5545 8.38401L33.1285 7.74001C33.3152 7.96401 33.5392 8.14135 33.8005 8.27201C34.0618 8.39335 34.3278 8.45401 34.5985 8.45401C35.0465 8.45401 35.4525 8.32335 35.8165 8.06201C36.1898 7.80068 36.4838 7.36668 36.6985 6.76001C36.9225 6.15335 37.0345 5.33668 37.0345 4.31001C37.0345 3.58201 36.9552 2.96135 36.7965 2.44801C36.6472 1.92535 36.4185 1.52868 36.1105 1.25801C35.8025 0.987348 35.4198 0.852015 34.9625 0.852015C34.6638 0.852015 34.3932 0.940681 34.1505 1.11801C33.9078 1.28601 33.7118 1.52401 33.5625 1.83201C33.4225 2.13068 33.3525 2.48068 33.3525 2.88201C33.3525 3.28335 33.4132 3.63335 33.5345 3.93201C33.6652 4.23068 33.8565 4.46401 34.1085 4.63201C34.3605 4.79068 34.6825 4.87001 35.0745 4.87001C35.3732 4.87001 35.6998 4.77201 36.0545 4.57601C36.4092 4.37068 36.7498 4.03001 37.0765 3.55401L37.1045 4.40801C36.8245 4.78135 36.4838 5.08468 36.0825 5.31801C35.6905 5.54201 35.2985 5.65401 34.9065 5.65401C34.3932 5.65401 33.9452 5.55135 33.5625 5.34601C33.1798 5.13135 32.8858 4.81868 32.6805 4.40801C32.4752 3.99735 32.3725 3.48868 32.3725 2.88201C32.3725 2.32201 32.4892 1.82735 32.7225 1.39801C32.9652 0.968681 33.2825 0.637348 33.6745 0.404014C34.0665 0.161348 34.4958 0.0400141 34.9625 0.0400141C35.4105 0.0400141 35.8165 0.128681 36.1805 0.306014C36.5538 0.483347 36.8758 0.754014 37.1465 1.11801C37.4172 1.47268 37.6272 1.92068 37.7765 2.46201C37.9352 2.99401 38.0145 3.61001 38.0145 4.31001C38.0145 5.21535 37.9212 5.99001 37.7345 6.63401C37.5478 7.26868 37.2958 7.78201 36.9785 8.17401C36.6612 8.56601 36.3018 8.85535 35.9005 9.04201C35.4992 9.21935 35.0792 9.30801 34.6405 9.30801Z" fill="#94969F"/>
<path d="M7.75 4.94001H38.7005V5.64001H7.75V4.94001Z" fill="#94969F"/>
</g>
</g>
</g>
</g>
<rect x="-184.5" y="-109.5" width="592.39" height="184.14" rx="3.5" stroke="#EAEAEC"/>
</g>
</g>
<path d="M453.39 -176V640.7H455.39V-176H453.39Z" fill="#EAEAEC" mask="url(#path-2-inside-1_0_1)"/>
</g>
<defs>
<clipPath id="clip0_0_1">
<rect width="7" height="9" fill="white" transform="translate(0.75 0.140015)"/>
</clipPath>
</defs>
</svg>
