<svg width="8" height="10" viewBox="0 0 8 10" fill="none" xmlns="http://www.w3.org/2000/svg">
<mask id="mask0_1_237" style="mask-type:luminance" maskUnits="userSpaceOnUse" x="0" y="0" width="8" height="10">
<path d="M0.440186 0.52002H7.44019V9.52002H0.440186V0.52002Z" fill="white"/>
</mask>
<g mask="url(#mask0_1_237)">
<path d="M1.40727 5.22002L3.94027 9.52002H5.19527L2.63027 5.40302C3.28227 5.31302 3.80427 5.10502 4.19627 4.77902C4.59627 4.44402 4.82427 3.97902 4.88127 3.38402H6.47227V2.60002H4.85827C4.8328 2.33796 4.75348 2.08399 4.62527 1.85402C4.50462 1.64421 4.34709 1.45789 4.16027 1.30402H6.47327V0.52002H1.40727V1.30302H1.67627C2.09227 1.30302 2.44327 1.34802 2.72827 1.43802C3.02227 1.52802 3.25527 1.67002 3.42627 1.86602C3.59727 2.05402 3.71227 2.29902 3.76927 2.60002H1.40727V3.38402H3.78027C3.74727 3.71002 3.64527 3.96702 3.47427 4.15402C3.30327 4.34202 3.06627 4.47702 2.76427 4.55802C2.40834 4.64717 2.04212 4.68853 1.67527 4.68102H1.40527V5.21902L1.40727 5.22002Z" fill="#03A685"/>
</g>
</svg>
