<svg xmlns="http://www.w3.org/2000/svg" width="24" height="24" viewBox="0 0 24 24" fill="none">
<path fill-rule="evenodd" clip-rule="evenodd" d="M8.3752 7.93128C8.3752 5.93447 10.0009 4.31042 12 4.31042C13.9991 4.31042 15.6248 5.93447 15.6248 7.93128V9.73176H8.3752V7.93128ZM18.3434 9.73176H17.4372V7.93129C17.4372 4.93652 14.9986 2.5 12 2.5C9.00139 2.5 6.5628 4.93652 6.5628 7.93129V9.73176H5.6566C4.90627 9.73176 4.2973 10.3398 4.2973 11.0898V20.142C4.2973 20.892 4.90627 21.5 5.6566 21.5H18.3434C19.0937 21.5 19.7027 20.892 19.7027 20.142V11.0898C19.7027 10.3398 19.0937 9.73176 18.3434 9.73176ZM12.9062 15.8172V17.8791C12.9062 18.3786 12.5002 18.7839 12 18.7839C11.4989 18.7839 11.0938 18.3786 11.0938 17.8791V15.8172C10.5537 15.5041 10.1876 14.9269 10.1876 14.2583C10.1876 13.2585 10.9986 12.4479 12 12.4479C13.0004 12.4479 13.8124 13.2585 13.8124 14.2583C13.8124 14.9269 13.4454 15.5041 12.9062 15.8172Z" fill="#6C6C6C"/>
</svg>