<svg width="56" height="56" viewBox="0 0 56 56" fill="none" xmlns="http://www.w3.org/2000/svg">
<path d="M25.7343 5.92625C26.4274 5.54134 27.2072 5.33936 28 5.33936C28.7928 5.33936 29.5726 5.54134 30.2657 5.92625L47.8007 15.6656C48.1642 15.8677 48.4671 16.1634 48.678 16.522C48.8888 16.8805 49 17.2889 49 17.7049V36.9199C48.9998 37.7521 48.7771 38.5691 48.3549 39.2862C47.9328 40.0034 47.3265 40.5946 46.599 40.9986L30.2657 50.0753C29.5726 50.4602 28.7928 50.6621 28 50.6621C27.2072 50.6621 26.4274 50.4602 25.7343 50.0753L9.401 40.9986C8.67383 40.5948 8.06781 40.0039 7.64567 39.2872C7.22353 38.5705 7.00061 37.754 7 36.9223V17.7049C6.99998 17.2889 7.11117 16.8805 7.32204 16.522C7.5329 16.1634 7.83579 15.8677 8.19933 15.6656L25.7367 5.92625H25.7343Z" stroke="#444E66" stroke-width="3" stroke-linecap="round" stroke-linejoin="round"/>
<path d="M28 28.0002V51.3335M7 16.3335L28 28.0002L7 16.3335ZM28 28.0002L49 16.3335L28 28.0002Z" stroke="#444E66" stroke-width="3" stroke-linejoin="round"/>
<path d="M17.5 22.1667L38.5 10.5" stroke="#444E66" stroke-width="3" stroke-linecap="round" stroke-linejoin="round"/>
<path d="M14 28.7644L21 32.6657" stroke="#444E66" stroke-width="3" stroke-linecap="round" stroke-linejoin="round"/>
</svg>
