<svg width="28" height="28" viewBox="0 0 28 28" fill="none" xmlns="http://www.w3.org/2000/svg">
<path fill-rule="evenodd" clip-rule="evenodd" d="M8.70949 1.2435C10.078 1.1805 10.5143 1.1665 14.0003 1.1665C17.4863 1.1665 17.9227 1.18167 19.29 1.2435C20.6573 1.30534 21.5907 1.5235 22.4073 1.83967C23.2625 2.16284 24.0383 2.668 24.68 3.32134C25.3333 3.96184 25.8373 4.7365 26.1593 5.59284C26.4767 6.4095 26.6937 7.34284 26.7567 8.70784C26.8197 10.0787 26.8337 10.515 26.8337 13.9998C26.8337 17.4858 26.8185 17.9222 26.7567 19.2907C26.6948 20.6557 26.4767 21.589 26.1593 22.4057C25.8373 23.2621 25.3325 24.0381 24.68 24.6795C24.0383 25.3328 23.2625 25.8368 22.4073 26.1588C21.5907 26.4762 20.6573 26.6932 19.2923 26.7562C17.9227 26.8192 17.4863 26.8332 14.0003 26.8332C10.5143 26.8332 10.078 26.818 8.70949 26.7562C7.34449 26.6943 6.41116 26.4762 5.59449 26.1588C4.73807 25.8368 3.96212 25.332 3.32066 24.6795C2.66777 24.0386 2.16253 23.263 1.84016 22.4068C1.52399 21.5902 1.30699 20.6568 1.24399 19.2918C1.18099 17.921 1.16699 17.4847 1.16699 13.9998C1.16699 10.5138 1.18216 10.0775 1.24399 8.71017C1.30583 7.34284 1.52399 6.4095 1.84016 5.59284C2.163 4.7366 2.66863 3.96104 3.32183 3.32017C3.96237 2.66742 4.73754 2.16219 5.59333 1.83967C6.40999 1.5235 7.34333 1.3065 8.70833 1.2435H8.70949ZM19.1862 3.5535C17.8328 3.49167 17.4268 3.47884 14.0003 3.47884C10.5738 3.47884 10.1678 3.49167 8.81449 3.5535C7.56266 3.61067 6.88366 3.8195 6.43099 3.99567C5.83249 4.229 5.40433 4.5055 4.95516 4.95467C4.52938 5.3689 4.2017 5.87317 3.99616 6.4305C3.81999 6.88317 3.61116 7.56217 3.55399 8.814C3.49216 10.1673 3.47933 10.5733 3.47933 13.9998C3.47933 17.4263 3.49216 17.8323 3.55399 19.1857C3.61116 20.4375 3.81999 21.1165 3.99616 21.5692C4.20149 22.1257 4.52933 22.6308 4.95516 23.045C5.36933 23.4708 5.87449 23.7987 6.43099 24.004C6.88366 24.1802 7.56266 24.389 8.81449 24.4462C10.1678 24.508 10.5727 24.5208 14.0003 24.5208C17.428 24.5208 17.8328 24.508 19.1862 24.4462C20.438 24.389 21.117 24.1802 21.5697 24.004C22.1682 23.7707 22.5963 23.4942 23.0455 23.045C23.4713 22.6308 23.7992 22.1257 24.0045 21.5692C24.1807 21.1165 24.3895 20.4375 24.4467 19.1857C24.5085 17.8323 24.5213 17.4263 24.5213 13.9998C24.5213 10.5733 24.5085 10.1673 24.4467 8.814C24.3895 7.56217 24.1807 6.88317 24.0045 6.4305C23.7712 5.832 23.4947 5.40384 23.0455 4.95467C22.6312 4.52892 22.127 4.20125 21.5697 3.99567C21.117 3.8195 20.438 3.61067 19.1862 3.5535ZM12.3612 17.956C13.2766 18.3371 14.2959 18.3885 15.2451 18.1015C16.1942 17.8145 17.0143 17.2069 17.5652 16.3825C18.1161 15.558 18.3637 14.5679 18.2657 13.5811C18.1677 12.5944 17.7302 11.6723 17.0278 10.9723C16.5801 10.5249 16.0387 10.1823 15.4427 9.96918C14.8467 9.75607 14.2108 9.67776 13.5809 9.73989C12.951 9.80202 12.3427 10.003 11.7998 10.3285C11.2569 10.6539 10.7929 11.0957 10.4412 11.622C10.0895 12.1483 9.85888 12.746 9.76593 13.3721C9.67298 13.9982 9.72 14.6372 9.90362 15.2429C10.0872 15.8487 10.4029 16.4062 10.8278 16.8753C11.2528 17.3445 11.7765 17.7136 12.3612 17.956ZM9.33599 9.3355C9.94852 8.72297 10.6757 8.23709 11.476 7.90559C12.2763 7.57409 13.1341 7.40347 14.0003 7.40347C14.8666 7.40347 15.7243 7.57409 16.5246 7.90559C17.325 8.23709 18.0521 8.72297 18.6647 9.3355C19.2772 9.94803 19.7631 10.6752 20.0946 11.4755C20.4261 12.2758 20.5967 13.1336 20.5967 13.9998C20.5967 14.8661 20.4261 15.7238 20.0946 16.5242C19.7631 17.3245 19.2772 18.0516 18.6647 18.6642C17.4276 19.9012 15.7498 20.5962 14.0003 20.5962C12.2509 20.5962 10.573 19.9012 9.33599 18.6642C8.09893 17.4271 7.40396 15.7493 7.40396 13.9998C7.40396 12.2504 8.09893 10.5726 9.33599 9.3355ZM22.0597 8.38584C22.2114 8.24265 22.333 8.07046 22.417 7.87947C22.5011 7.68848 22.5459 7.48257 22.549 7.27392C22.552 7.06528 22.5132 6.85814 22.4347 6.66478C22.3563 6.47142 22.2398 6.29577 22.0923 6.14822C21.9447 6.00067 21.7691 5.88422 21.5757 5.80577C21.3824 5.72733 21.1752 5.68848 20.9666 5.69152C20.7579 5.69456 20.552 5.73943 20.361 5.82348C20.17 5.90753 19.9978 6.02905 19.8547 6.18084C19.5762 6.47604 19.4237 6.86815 19.4296 7.27392C19.4356 7.6797 19.5994 8.0672 19.8863 8.35415C20.1733 8.64111 20.5608 8.80494 20.9666 8.81085C21.3723 8.81677 21.7645 8.66431 22.0597 8.38584Z" fill="white"/>
</svg>
