<svg width="28" height="24" viewBox="0 0 28 24" fill="none" xmlns="http://www.w3.org/2000/svg">
<path d="M26.8337 1.50001C25.7164 2.28807 24.4795 2.89081 23.1703 3.28501C22.4677 2.47711 21.5339 1.90449 20.4952 1.64459C19.4565 1.3847 18.3631 1.45007 17.3628 1.83188C16.3624 2.21368 15.5035 2.89348 14.9021 3.77935C14.3008 4.66522 13.986 5.7144 14.0003 6.78501V7.95168C11.9501 8.00484 9.91848 7.55013 8.0865 6.62803C6.25453 5.70594 4.67903 4.34509 3.50033 2.66668C3.50033 2.66668 -1.16634 13.1667 9.33366 17.8333C6.93094 19.4643 4.06868 20.2821 1.16699 20.1667C11.667 26 24.5003 20.1667 24.5003 6.75001C24.4993 6.42504 24.468 6.10087 24.407 5.78168C25.5977 4.60742 26.438 3.12484 26.8337 1.50001V1.50001Z" stroke="white" stroke-width="2" stroke-linecap="round" stroke-linejoin="round"/>
</svg>
