<svg width="31" height="31" viewBox="0 0 31 31" fill="none" xmlns="http://www.w3.org/2000/svg">
<path fill-rule="evenodd" clip-rule="evenodd" d="M23.7705 7.276C22.6963 6.19472 21.4182 5.33735 20.0103 4.75356C18.6024 4.16977 17.0926 3.87116 15.5685 3.87504C9.17729 3.87504 3.97446 9.07658 3.97188 15.4703C3.97188 17.5137 4.50533 19.5081 5.51929 21.2673L3.875 27.2749L10.022 25.6616C11.7224 26.5872 13.6273 27.0725 15.5633 27.0734H15.5685C21.9583 27.0734 27.1612 21.8718 27.1637 15.4781C27.1681 13.9545 26.8705 12.4452 26.2881 11.0374C25.7057 9.62958 24.85 8.35114 23.7705 7.276ZM15.5685 25.1165H15.5646C13.8383 25.1167 12.1438 24.6522 10.6588 23.7719L10.3075 23.5626L6.65983 24.5197L7.63246 20.9638L7.40383 20.5995C6.43868 19.063 5.92776 17.2848 5.93004 15.4703C5.93263 10.1564 10.2558 5.8332 15.5723 5.8332C16.8385 5.83039 18.0926 6.07873 19.2622 6.56384C20.4317 7.04895 21.4934 7.7612 22.3859 8.65937C23.2831 9.55326 23.9942 10.6161 24.4782 11.7865C24.9622 12.9569 25.2094 14.2116 25.2056 15.4781C25.203 20.792 20.8798 25.1165 15.5685 25.1165ZM20.8552 17.8974C20.5646 17.7514 19.1412 17.0513 18.8751 16.9545C18.6103 16.8576 18.4179 16.8098 18.2241 17.0991C18.0304 17.3885 17.475 18.0407 17.3057 18.2345C17.1365 18.4282 16.9673 18.4515 16.678 18.3068C16.3887 18.1622 15.4548 17.856 14.3478 16.8692C13.4863 16.1007 12.905 15.1526 12.7358 14.862C12.5666 14.5713 12.7177 14.415 12.8637 14.2704C12.9942 14.1412 13.153 13.932 13.2977 13.7627C13.4424 13.5935 13.4902 13.4734 13.587 13.2797C13.6839 13.0859 13.6361 12.9167 13.5625 12.772C13.4902 12.6261 12.9102 11.2001 12.6687 10.6201C12.4349 10.0582 12.1959 10.1332 12.0177 10.1254C11.8331 10.1179 11.6483 10.1144 11.4635 10.1151C11.3166 10.1188 11.1721 10.1529 11.0389 10.2151C10.9058 10.2774 10.7869 10.3664 10.6898 10.4767C10.4237 10.7674 9.67588 11.4675 9.67588 12.8935C9.67588 14.3195 10.7144 15.6977 10.859 15.8914C11.0037 16.0852 12.9025 19.0108 15.8087 20.2663C16.501 20.5647 17.041 20.7429 17.4607 20.8772C18.1544 21.0981 18.786 21.0658 19.2859 20.9922C19.8426 20.9095 20.9999 20.2921 21.2415 19.6153C21.483 18.9385 21.483 18.3585 21.4107 18.2371C21.3383 18.1157 21.1433 18.042 20.8552 17.8974Z" fill="white"/>
</svg>
